#Comment line ignore any data following # character 
#Hierarchical Translation and Rotation (.htr) file 
[Header]	
#Header keywords are followed by a single value 
FileType HTR		#Single word string
DataType HTRS		#Translation followed by rotation and scale data
FileVersion 1		#integer
NumSegments 84		#integer
NumFrames 2		#integer
DataFrameRate 30		#integer, data frame rate in this file
EulerRotationOrder ZYX
CalibrationUnits mm
RotationUnits Degrees
GlobalAxisofGravity Y
BoneLengthAxis Y
ScaleFactor 1.00
[SegmentNames&Hierarchy]
#CHILD	PARENT
MASTER GLOBAL
root MASTER
chest root
L_mid_tent01 root
R_mid_tent01 root
spine01 root
Bip01_Neck chest
L_humerus chest
R_humerus chest
weapon_bone chest
Bip01_Head Bip01_Neck
eye_left_bone Bip01_Head
eye_right_bone Bip01_Head
L_forearm L_humerus
L_front_hand L_forearm
L_weapon_bone L_forearm
L_front_hand01_01 L_front_hand
L_front_hand02_01 L_front_hand
L_front_hand03_01 L_front_hand
L_front_hand01_02 L_front_hand01_01
L_front_hand02_02 L_front_hand02_01
L_front_hand03_02 L_front_hand03_01
R_forearm R_humerus
R_front_hand R_forearm
R_weapon_bone R_forearm
R_front_hand01_01 R_front_hand
R_front_hand02_01 R_front_hand
R_front_hand03_01 R_front_hand
R_front_hand01_02 R_front_hand01_01
R_front_hand02_02 R_front_hand02_01
R_front_hand03_02 R_front_hand03_01
null_rope01_connect L_mid_tent01
Rope1_Seg01 null_rope01_connect
Rope1_Seg02 Rope1_Seg01
Rope1_Seg03 Rope1_Seg02
Rope1_Seg04 Rope1_Seg03
Rope1_Seg05 Rope1_Seg04
Rope1_Seg06 Rope1_Seg05
Rope1_Seg07 Rope1_Seg06
Rope1_Seg09 Rope1_Seg07
L_mid_hand01 Rope1_Seg09
L_mid_hand02 Rope1_Seg09
L_mid_hand03 Rope1_Seg09
null_rope02_connect R_mid_tent01
Rope2_Seg01 null_rope02_connect
Rope2_Seg02 Rope2_Seg01
Rope2_Seg03 Rope2_Seg02
Rope2_Seg04 Rope2_Seg03
Rope2_Seg05 Rope2_Seg04
Rope2_Seg06 Rope2_Seg05
Rope2_Seg07 Rope2_Seg06
Rope2_Seg09 Rope2_Seg07
R_mid_hand01 Rope2_Seg09
R_mid_hand02 Rope2_Seg09
R_mid_hand03 Rope2_Seg09
spine02 spine01
spine03 spine02
pelvis spine03
null_rope03_connect pelvis
null_rope04_connect pelvis
Rope3_Seg01 null_rope03_connect
Rope3_Seg02 Rope3_Seg01
Rope3_Seg03 Rope3_Seg02
Rope3_Seg04 Rope3_Seg03
Rope3_Seg05 Rope3_Seg04
Rope3_Seg06 Rope3_Seg05
Rope3_Seg07 Rope3_Seg06
Rope3_Seg08 Rope3_Seg07
Rope3_Seg09 Rope3_Seg08
R_rear_hand01 Rope3_Seg09
R_rear_hand02 Rope3_Seg09
R_rear_hand03 Rope3_Seg09
Rope4_Seg01 null_rope04_connect
Rope4_Seg02 Rope4_Seg01
Rope4_Seg03 Rope4_Seg02
Rope4_Seg04 Rope4_Seg03
Rope4_Seg05 Rope4_Seg04
Rope4_Seg06 Rope4_Seg05
Rope4_Seg07 Rope4_Seg06
Rope4_Seg08 Rope4_Seg07
Rope4_Seg09 Rope4_Seg08
L_rear_hand01 Rope4_Seg09
L_rear_hand02 Rope4_Seg09
L_rear_hand03 Rope4_Seg09
[BasePosition]
#SegmentName Tx, Ty, Tz, Rx, Ry, Rz, BoneLength
MASTER 0.000000 0.000000 0.000000 -90.000000 0.000000 0.000000 10.000000 
root 0.000000 0.000000 0.000000 0.000000 0.000000 0.000000 10.000000 
chest 0.000000 0.000000 0.000000 0.000000 0.000000 0.000000 10.000000 
L_mid_tent01 0.000000 0.000000 0.000000 0.000000 0.000000 0.000000 10.000000 
R_mid_tent01 0.000000 0.000000 0.000000 0.000000 0.000000 0.000000 10.000000 
spine01 0.000000 0.000000 0.000000 0.000000 0.000000 0.000000 10.000000 
Bip01_Neck 0.000000 0.000000 0.000000 0.000000 0.000000 0.000000 10.000000 
L_humerus 0.000000 0.000000 0.000000 0.000000 0.000000 0.000000 10.000000 
R_humerus 0.000000 0.000000 0.000000 0.000000 0.000000 0.000000 10.000000 
weapon_bone 0.000000 0.000000 0.000000 0.000000 0.000000 0.000000 10.000000 
Bip01_Head 0.000000 0.000000 0.000000 0.000000 0.000000 0.000000 10.000000 
eye_left_bone 0.000000 0.000000 0.000000 0.000000 0.000000 0.000000 10.000000 
eye_right_bone 0.000000 0.000000 0.000000 0.000000 0.000000 0.000000 10.000000 
L_forearm 0.000000 0.000000 0.000000 0.000000 0.000000 0.000000 10.000000 
L_front_hand 0.000000 0.000000 0.000000 0.000000 0.000000 0.000000 10.000000 
L_weapon_bone 0.000000 0.000000 0.000000 0.000000 0.000000 0.000000 10.000000 
L_front_hand01_01 0.000000 0.000000 0.000000 0.000000 0.000000 0.000000 10.000000 
L_front_hand02_01 0.000000 0.000000 0.000000 0.000000 0.000000 0.000000 10.000000 
L_front_hand03_01 0.000000 0.000000 0.000000 0.000000 0.000000 0.000000 10.000000 
L_front_hand01_02 0.000000 0.000000 0.000000 0.000000 0.000000 0.000000 10.000000 
L_front_hand02_02 0.000000 0.000000 0.000000 0.000000 0.000000 0.000000 10.000000 
L_front_hand03_02 0.000000 0.000000 0.000000 0.000000 0.000000 0.000000 10.000000 
R_forearm 0.000000 0.000000 0.000000 0.000000 0.000000 0.000000 10.000000 
R_front_hand 0.000000 0.000000 0.000000 0.000000 0.000000 0.000000 10.000000 
R_weapon_bone 0.000000 0.000000 0.000000 0.000000 0.000000 0.000000 10.000000 
R_front_hand01_01 0.000000 0.000000 0.000000 0.000000 0.000000 0.000000 10.000000 
R_front_hand02_01 0.000000 0.000000 0.000000 0.000000 0.000000 0.000000 10.000000 
R_front_hand03_01 0.000000 0.000000 0.000000 0.000000 0.000000 0.000000 10.000000 
R_front_hand01_02 0.000000 0.000000 0.000000 0.000000 0.000000 0.000000 10.000000 
R_front_hand02_02 0.000000 0.000000 0.000000 0.000000 0.000000 0.000000 10.000000 
R_front_hand03_02 0.000000 0.000000 0.000000 0.000000 0.000000 0.000000 10.000000 
null_rope01_connect 0.000000 0.000000 0.000000 0.000000 0.000000 0.000000 10.000000 
Rope1_Seg01 0.000000 0.000000 0.000000 0.000000 0.000000 0.000000 10.000000 
Rope1_Seg02 0.000000 0.000000 0.000000 0.000000 0.000000 0.000000 10.000000 
Rope1_Seg03 0.000000 0.000000 0.000000 0.000000 0.000000 0.000000 10.000000 
Rope1_Seg04 0.000000 0.000000 0.000000 0.000000 0.000000 0.000000 10.000000 
Rope1_Seg05 0.000000 0.000000 0.000000 0.000000 0.000000 0.000000 10.000000 
Rope1_Seg06 0.000000 0.000000 0.000000 0.000000 0.000000 0.000000 10.000000 
Rope1_Seg07 0.000000 0.000000 0.000000 0.000000 0.000000 0.000000 10.000000 
Rope1_Seg09 0.000000 0.000000 0.000000 0.000000 0.000000 0.000000 10.000000 
L_mid_hand01 0.000000 0.000000 0.000000 0.000000 0.000000 0.000000 10.000000 
L_mid_hand02 0.000000 0.000000 0.000000 0.000000 0.000000 0.000000 10.000000 
L_mid_hand03 0.000000 0.000000 0.000000 0.000000 0.000000 0.000000 10.000000 
null_rope02_connect 0.000000 0.000000 0.000000 0.000000 0.000000 0.000000 10.000000 
Rope2_Seg01 0.000000 0.000000 0.000000 0.000000 0.000000 0.000000 10.000000 
Rope2_Seg02 0.000000 0.000000 0.000000 0.000000 0.000000 0.000000 10.000000 
Rope2_Seg03 0.000000 0.000000 0.000000 0.000000 0.000000 0.000000 10.000000 
Rope2_Seg04 0.000000 0.000000 0.000000 0.000000 0.000000 0.000000 10.000000 
Rope2_Seg05 0.000000 0.000000 0.000000 0.000000 0.000000 0.000000 10.000000 
Rope2_Seg06 0.000000 0.000000 0.000000 0.000000 0.000000 0.000000 10.000000 
Rope2_Seg07 0.000000 0.000000 0.000000 0.000000 0.000000 0.000000 10.000000 
Rope2_Seg09 0.000000 0.000000 0.000000 0.000000 0.000000 0.000000 10.000000 
R_mid_hand01 0.000000 0.000000 0.000000 0.000000 0.000000 0.000000 10.000000 
R_mid_hand02 0.000000 0.000000 0.000000 0.000000 0.000000 0.000000 10.000000 
R_mid_hand03 0.000000 0.000000 0.000000 0.000000 0.000000 0.000000 10.000000 
spine02 0.000000 0.000000 0.000000 0.000000 0.000000 0.000000 10.000000 
spine03 0.000000 0.000000 0.000000 0.000000 0.000000 0.000000 10.000000 
pelvis 0.000000 0.000000 0.000000 0.000000 0.000000 0.000000 10.000000 
null_rope03_connect 0.000000 0.000000 0.000000 0.000000 0.000000 0.000000 10.000000 
null_rope04_connect 0.000000 0.000000 0.000000 0.000000 0.000000 0.000000 10.000000 
Rope3_Seg01 0.000000 0.000000 0.000000 0.000000 0.000000 0.000000 10.000000 
Rope3_Seg02 0.000000 0.000000 0.000000 0.000000 0.000000 0.000000 10.000000 
Rope3_Seg03 0.000000 0.000000 0.000000 0.000000 0.000000 0.000000 10.000000 
Rope3_Seg04 0.000000 0.000000 0.000000 0.000000 0.000000 0.000000 10.000000 
Rope3_Seg05 0.000000 0.000000 0.000000 0.000000 0.000000 0.000000 10.000000 
Rope3_Seg06 0.000000 0.000000 0.000000 0.000000 0.000000 0.000000 10.000000 
Rope3_Seg07 0.000000 0.000000 0.000000 0.000000 0.000000 0.000000 10.000000 
Rope3_Seg08 0.000000 0.000000 0.000000 0.000000 0.000000 0.000000 10.000000 
Rope3_Seg09 0.000000 0.000000 0.000000 0.000000 0.000000 0.000000 10.000000 
R_rear_hand01 0.000000 0.000000 0.000000 0.000000 0.000000 0.000000 10.000000 
R_rear_hand02 0.000000 0.000000 0.000000 0.000000 0.000000 0.000000 10.000000 
R_rear_hand03 0.000000 0.000000 0.000000 0.000000 0.000000 0.000000 10.000000 
Rope4_Seg01 0.000000 0.000000 0.000000 0.000000 0.000000 0.000000 10.000000 
Rope4_Seg02 0.000000 0.000000 0.000000 0.000000 0.000000 0.000000 10.000000 
Rope4_Seg03 0.000000 0.000000 0.000000 0.000000 0.000000 0.000000 10.000000 
Rope4_Seg04 0.000000 0.000000 0.000000 0.000000 0.000000 0.000000 10.000000 
Rope4_Seg05 0.000000 0.000000 0.000000 0.000000 0.000000 0.000000 10.000000 
Rope4_Seg06 0.000000 0.000000 0.000000 0.000000 0.000000 0.000000 10.000000 
Rope4_Seg07 0.000000 0.000000 0.000000 0.000000 0.000000 0.000000 10.000000 
Rope4_Seg08 0.000000 0.000000 0.000000 0.000000 0.000000 0.000000 10.000000 
Rope4_Seg09 0.000000 0.000000 0.000000 0.000000 0.000000 0.000000 10.000000 
L_rear_hand01 0.000000 0.000000 0.000000 0.000000 0.000000 0.000000 10.000000 
L_rear_hand02 0.000000 0.000000 0.000000 0.000000 0.000000 0.000000 10.000000 
L_rear_hand03 0.000000 0.000000 0.000000 0.000000 0.000000 0.000000 10.000000 
#Beginning of Data. Separated by tabs
#Fr	Tx	Ty	Tz	Rx	Ry	Rz	SF
[MASTER]
104 -97.512817 -9.969788 -1233.149414 0.001346 0.001923 -20.001186 1237.039063
105 -97.512817 -9.969788 -1233.149414 0.001346 0.001923 -20.001186 1237.039063
[root]
104 112.648132 484.688141 2155.489014 -65.109589 -51.754620 -117.633369 2212.180908
105 112.648132 484.688141 2155.489014 -65.109596 -51.754631 -117.633369 2212.180908
[chest]
104 -84.512650 -34.090519 0.000000 -6.851975 -0.481551 162.904602 91.129311
105 -84.512650 -34.090519 0.000000 -7.354863 0.147573 160.527786 91.129311
[L_mid_tent01]
104 27.298735 22.179411 -249.918793 42.814743 61.862267 134.415649 252.381744
105 27.298733 22.179413 -249.918793 43.262520 61.922974 134.938965 252.381744
[R_mid_tent01]
104 23.228794 24.509907 226.238495 29.492590 -62.071892 -144.891953 228.744751
105 23.228794 24.509907 226.238495 29.492590 -62.071892 -144.891953 228.744751
[spine01]
104 -0.361383 -0.195265 0.000000 -0.000001 -0.000007 22.052340 0.410763
105 -0.361383 -0.195265 0.000000 -0.000001 -0.000007 22.052340 0.410763
[Bip01_Neck]
104 165.484543 71.581718 0.000119 176.643677 -1.657967 43.431911 180.302734
105 165.484543 71.581718 0.000119 176.643677 -1.657967 43.431911 180.302734
[L_humerus]
104 -13.983130 -135.272980 -120.471481 178.964996 1.892241 -146.979980 181.680161
105 -13.983130 -135.272980 -120.471481 178.964996 1.892241 -146.979980 181.680161
[R_humerus]
104 -13.983309 -135.273102 125.287651 176.357590 6.146129 -145.149719 184.909012
105 -13.983309 -135.273102 125.287651 176.357590 6.146129 -145.149719 184.909012
[weapon_bone]
104 235.964890 -300.705902 0.000000 0.000000 -89.951546 -128.212341 382.234833
105 235.964890 -300.705902 0.000000 0.000000 -89.951546 -128.212341 382.234833
[Bip01_Head]
104 144.453873 161.607819 13.399277 2.425608 17.727417 -42.611320 217.171692
105 144.453873 161.607819 13.399277 2.425608 17.727419 -42.611328 217.171692
[eye_left_bone]
104 -24.626970 125.451866 -64.772606 0.000000 -90.000000 -99.840431 143.318359
105 -24.626970 125.451866 -64.772606 0.000000 -90.000000 -99.840431 143.318359
[eye_right_bone]
104 -24.626970 125.451866 64.327362 0.000000 -89.965736 80.156380 143.117676
105 -24.626970 125.451866 64.327362 0.000000 -89.965736 80.156380 143.117676
[L_forearm]
104 322.776093 0.000000 -0.000119 0.001130 -0.002057 -147.582291 322.776093
105 322.776093 0.000000 -0.000119 0.001130 -0.002057 -147.582291 322.776093
[L_front_hand]
104 241.149185 -0.042021 -3.300071 -156.495148 -1.834925 -27.422264 241.171753
105 241.149185 -0.042021 -3.300071 -156.803940 -1.836334 -27.422745 241.171753
[L_weapon_bone]
104 156.183838 0.000000 0.000000 0.000014 0.000007 0.000001 156.183838
105 156.183838 0.000000 0.000000 0.000014 0.000007 0.000001 156.183838
[L_front_hand01_01]
104 86.095154 20.947098 -0.655860 -0.366594 -0.477154 75.385582 88.609184
105 86.095154 20.947098 -0.655860 -0.366594 -0.477154 75.385574 88.609184
[L_front_hand02_01]
104 86.935165 -11.437475 24.513514 154.399796 -59.883835 -61.369587 91.046425
105 86.935165 -11.437475 24.513514 154.399796 -59.883835 -61.369587 91.046425
[L_front_hand03_01]
104 86.637497 -14.123976 -20.424902 -153.913849 58.118122 -62.702866 90.126129
105 86.637497 -14.123976 -20.424902 -153.913879 58.118130 -62.702892 90.126129
[L_front_hand01_02]
104 71.020905 -0.000179 0.000030 0.000334 -0.002323 -106.379684 71.020905
105 71.020905 -0.000179 0.000030 0.000334 -0.002323 -106.379684 71.020905
[L_front_hand02_02]
104 71.020927 -0.000119 0.000060 0.000334 -0.002323 -106.379684 71.020927
105 71.020927 -0.000119 0.000060 0.000334 -0.002323 -106.379684 71.020927
[L_front_hand03_02]
104 71.020905 -0.000060 0.000060 0.000334 -0.002323 -106.379684 71.020905
105 71.020905 -0.000060 0.000060 0.000334 -0.002323 -106.379684 71.020905
[R_forearm]
104 322.776428 -0.000060 0.000030 0.114825 0.181654 -148.389832 322.776428
105 322.776428 -0.000060 0.000030 0.114825 0.181654 -148.389832 322.776428
[R_front_hand]
104 238.847015 -0.006795 2.210259 -2.635298 -10.645461 -26.312506 238.857239
105 238.847015 -0.006795 2.210259 -2.635298 -10.645461 -26.312506 238.857239
[R_weapon_bone]
104 155.664093 0.002503 -0.000030 0.003487 0.001180 -90.988930 155.664078
105 155.664093 0.002503 -0.000030 0.003487 0.001180 -90.988930 155.664078
[R_front_hand01_01]
104 87.624611 14.231146 22.918642 -154.633484 -59.950607 61.746033 91.683487
105 87.624611 14.231146 22.918642 -154.633499 -59.950619 61.746044 91.683487
[R_front_hand02_01]
104 89.356956 14.367283 -19.491137 154.602661 58.302849 63.744389 92.579636
105 89.356956 14.367283 -19.491137 154.602661 58.302849 63.744389 92.579636
[R_front_hand03_01]
104 87.286232 -22.307278 -0.143439 0.162155 -0.423168 -75.767921 90.091743
105 87.286232 -22.307278 -0.143439 0.162155 -0.423168 -75.767921 90.091743
[R_front_hand01_02]
104 71.020905 0.000060 0.000119 0.002323 -0.000334 106.381714 71.020905
105 71.020905 0.000060 0.000119 0.002323 -0.000334 106.381714 71.020905
[R_front_hand02_02]
104 71.020844 -0.000030 -0.000119 0.002323 -0.000334 106.381714 71.020836
105 71.020844 -0.000030 -0.000119 0.002323 -0.000334 106.381714 71.020836
[R_front_hand03_02]
104 71.020905 0.000000 0.000030 0.002323 -0.000334 106.381714 71.020905
105 71.020905 0.000000 0.000030 0.002323 -0.000334 106.381714 71.020905
[null_rope01_connect]
104 328.732483 0.000000 -0.000238 -114.286629 -3.056725 133.331329 328.732483
105 328.732483 0.000000 -0.000238 -114.451317 -2.920834 133.201126 328.732483
[Rope1_Seg01]
104 -0.000076 0.000000 0.000000 -53.134296 38.486572 98.994675 0.000076
105 -0.000076 0.000000 0.000000 -53.192211 38.620674 99.142128 0.000076
[Rope1_Seg02]
104 139.999863 -0.000179 0.000000 -9.821893 3.830219 7.948049 139.999863
105 139.999863 -0.000179 0.000000 -9.804957 3.832106 7.995939 139.999863
[Rope1_Seg03]
104 139.999924 0.000060 -0.000060 -11.930731 4.254688 15.300773 139.999924
105 139.999924 0.000060 -0.000060 -11.878578 4.242938 15.368435 139.999924
[Rope1_Seg04]
104 139.999924 -0.000060 -0.000119 -9.572455 -0.684147 29.784683 139.999924
105 139.999924 -0.000060 -0.000119 -9.480738 -0.717475 29.750002 139.999924
[Rope1_Seg05]
104 139.999832 0.000119 -0.000060 -1.798039 -0.566636 25.048555 139.999832
105 139.999832 0.000119 -0.000060 -1.742572 -0.484934 24.890244 139.999832
[Rope1_Seg06]
104 139.999954 0.000119 -0.000060 1.844442 5.640903 11.407171 139.999954
105 139.999954 0.000119 -0.000060 1.844040 5.627270 11.393597 139.999954
[Rope1_Seg07]
104 139.999985 0.000060 0.000000 1.505152 2.495284 7.866496 139.999985
105 139.999985 0.000060 0.000000 1.502746 2.477700 7.857590 139.999985
[Rope1_Seg09]
104 121.602913 0.000119 -0.000089 -89.793175 -1.359789 0.847147 121.602913
105 121.602913 0.000119 -0.000089 -89.793175 -1.359789 0.847147 121.602913
[L_mid_hand01]
104 103.859421 1.038730 8.195221 130.544373 -67.584534 -38.866943 104.187431
105 103.859421 1.038730 8.195221 130.544373 -67.584534 -38.866943 104.187431
[L_mid_hand02]
104 105.572853 -4.139662 -10.864139 -168.923172 43.409309 -73.498894 106.211075
105 105.572853 -4.139662 -10.864139 -168.923172 43.409309 -73.498886 106.211075
[L_mid_hand03]
104 104.641464 17.579376 -3.913581 -6.012626 17.808172 74.893661 106.179977
105 104.641464 17.579376 -3.913581 -6.012627 17.808174 74.893669 106.179977
[null_rope02_connect]
104 328.732849 0.000179 -0.000119 -95.537643 0.841558 -4.719750 328.732849
105 328.732849 0.000179 -0.000119 -95.537643 0.841558 -4.719750 328.732849
[Rope2_Seg01]
104 0.000076 0.000000 0.000000 90.331268 13.405700 26.607508 0.000076
105 0.000076 0.000000 0.000000 90.311157 13.389051 26.533005 0.000076
[Rope2_Seg02]
104 139.999741 -0.000060 -0.000119 -3.184309 -7.031977 -13.230690 139.999756
105 139.999741 -0.000060 -0.000119 -3.212877 -7.038253 -13.295665 139.999756
[Rope2_Seg03]
104 140.000107 0.000030 0.000000 -4.629615 -11.008486 -23.445078 140.000107
105 140.000107 0.000030 0.000000 -4.648847 -10.973764 -23.491873 140.000107
[Rope2_Seg04]
104 139.999802 0.000000 -0.000060 -4.165860 -9.537211 -26.986231 139.999802
105 139.999802 0.000000 -0.000060 -4.148397 -9.404284 -26.852903 139.999802
[Rope2_Seg05]
104 139.999985 -0.000060 0.000119 -0.905837 4.029870 -7.042224 139.999985
105 139.999985 -0.000060 0.000119 -0.898223 4.019301 -7.020775 139.999985
[Rope2_Seg06]
104 139.999893 -0.000030 -0.000119 -0.130998 5.375727 -1.955356 139.999893
105 139.999893 -0.000030 -0.000119 -0.134732 5.319304 -2.009886 139.999893
[Rope2_Seg07]
104 139.999893 0.000060 -0.000060 -0.003038 2.341525 -3.296192 139.999893
105 139.999893 0.000060 -0.000060 -0.001227 2.323275 -3.314123 139.999893
[Rope2_Seg09]
104 121.338966 0.000089 -0.000060 33.793236 -1.359788 -0.847141 121.338966
105 121.338966 0.000089 -0.000060 33.793236 -1.359788 -0.847141 121.338966
[R_mid_hand01]
104 104.680779 11.144459 -10.335981 -16.212063 45.237247 70.462852 105.778534
105 104.680779 11.144459 -10.335981 -16.212063 45.237247 70.462852 105.778534
[R_mid_hand02]
104 104.070427 2.443552 8.231699 49.067368 -67.749771 39.286453 104.424065
105 104.070427 2.443552 8.231699 49.067371 -67.749794 39.286461 104.424065
[R_mid_hand03]
104 106.028137 -11.221827 -5.996406 -177.101105 15.551026 -76.585571 106.788818
105 106.028137 -11.221827 -5.996406 -177.101105 15.551026 -76.585571 106.788818
[spine02]
104 129.756927 0.001550 0.000119 0.513162 -4.027153 -15.129230 129.756927
105 129.756927 0.001550 0.000119 0.511143 -4.027416 -15.101706 129.756927
[spine03]
104 78.613892 0.081635 -4.899025 1.987279 3.784418 17.850407 78.766434
105 78.613892 0.081636 -4.899024 1.986204 3.785081 17.833881 78.766434
[pelvis]
104 169.435242 0.051022 0.000000 -0.069742 -0.177968 16.887753 169.435257
105 169.435242 0.051022 0.000000 -0.069685 -0.177991 16.850975 169.435257
[null_rope03_connect]
104 -1.257226 -2.466202 137.391083 -57.443764 -59.259140 164.291794 137.418976
105 -1.257226 -2.466202 137.391083 -57.446911 -59.258362 164.317673 137.418976
[null_rope04_connect]
104 -1.259640 -2.480268 -137.844437 -57.443764 -59.259140 164.291794 137.872513
105 -1.259640 -2.480268 -137.844437 -57.446911 -59.258362 164.317673 137.872513
[Rope3_Seg01]
104 0.000000 0.000076 0.000000 27.587536 -61.389263 -80.393646 0.000076
105 0.000000 0.000077 0.000000 27.585230 -61.406925 -80.385330 0.000077
[Rope3_Seg02]
104 139.999924 -0.000119 0.000060 -11.112457 29.249807 -15.489550 139.999924
105 139.999924 -0.000119 0.000060 -11.115390 29.251911 -15.496943 139.999924
[Rope3_Seg03]
104 139.999924 -0.000119 0.000119 -1.442181 19.675997 -1.664621 139.999924
105 139.999924 -0.000119 0.000119 -1.444628 19.685936 -1.671332 139.999924
[Rope3_Seg04]
104 139.999924 0.000119 0.000000 -3.113539 23.242107 -16.695841 139.999924
105 139.999924 0.000119 0.000000 -3.112895 23.240858 -16.693674 139.999924
[Rope3_Seg05]
104 139.999924 -0.000238 0.000060 -9.833521 30.812759 -30.338650 139.999924
105 139.999924 -0.000238 0.000060 -9.833694 30.813364 -30.339451 139.999924
[Rope3_Seg06]
104 139.999893 -0.000119 -0.000060 -1.494759 10.987748 -8.322326 139.999893
105 139.999893 -0.000119 -0.000060 -1.495175 10.989395 -8.323778 139.999893
[Rope3_Seg07]
104 139.999771 0.000060 -0.000119 -0.245293 5.305443 -3.831900 139.999771
105 139.999771 0.000060 -0.000119 -0.245320 5.305822 -3.832206 139.999771
[Rope3_Seg08]
104 139.999985 -0.000060 0.000000 0.181928 2.747131 -1.973800 139.999985
105 139.999985 -0.000060 0.000000 0.181923 2.747291 -1.973880 139.999985
[Rope3_Seg09]
104 90.185997 -0.000179 -0.000060 89.793228 -1.359877 -0.847183 90.185997
105 90.185997 -0.000179 -0.000060 89.793228 -1.359877 -0.847183 90.185997
[R_rear_hand01]
104 103.366196 -6.073594 -10.757982 -177.714203 24.565960 -73.910950 104.101845
105 103.366196 -6.073594 -10.757982 -177.714203 24.565960 -73.910950 104.101845
[R_rear_hand02]
104 100.509819 12.039542 -7.992327 -12.874829 36.868488 72.167213 101.543350
105 100.509819 12.039542 -7.992327 -12.874827 36.868492 72.167221 101.543350
[R_rear_hand03]
104 101.539970 5.215704 5.435467 71.484581 -71.816628 21.513813 101.819031
105 101.539970 5.215704 5.435467 71.484581 -71.816643 21.513824 101.819031
[Rope4_Seg01]
104 -0.000153 0.000000 0.000000 33.036930 -3.889717 134.268524 0.000153
105 -0.000154 0.000000 0.000000 33.132935 -3.820573 134.237610 0.000154
[Rope4_Seg02]
104 139.999985 0.000060 0.000119 -8.348016 23.272808 14.548913 139.999985
105 139.999985 0.000060 0.000119 -8.938864 23.150047 14.659336 139.999985
[Rope4_Seg03]
104 139.999924 0.000000 -0.000238 -134.351074 14.112095 14.212604 139.999924
105 139.999924 0.000000 -0.000238 -131.335983 13.717005 14.456316 139.999924
[Rope4_Seg04]
104 139.999985 0.000000 0.000119 -20.326674 -17.307028 2.121451 139.999985
105 139.999985 0.000000 0.000119 -22.217323 -17.220629 2.984808 139.999985
[Rope4_Seg05]
104 139.999802 -0.000060 -0.000119 -4.914163 -15.273559 -2.435928 139.999802
105 139.999802 -0.000060 -0.000119 -5.550865 -15.504880 -2.025654 139.999802
[Rope4_Seg06]
104 139.999924 0.000000 0.000060 -0.896110 -7.744873 -2.191669 139.999924
105 139.999924 0.000000 0.000060 -1.004520 -7.828770 -2.106033 139.999924
[Rope4_Seg07]
104 139.999802 0.000000 0.000000 -0.312491 -4.943199 -1.507606 139.999802
105 139.999802 0.000000 0.000000 -0.361519 -4.991200 -1.458830 139.999802
[Rope4_Seg08]
104 139.999924 0.000000 0.000119 -1.679921 -2.960170 -0.918125 139.999924
105 139.999924 0.000000 0.000119 -1.701012 -2.982241 -0.893343 139.999924
[Rope4_Seg09]
104 90.185791 0.000060 0.000060 -135.617828 2.228885 0.850567 90.185791
105 90.185791 0.000060 0.000060 -135.617828 2.228885 0.850567 90.185791
[L_rear_hand01]
104 101.696655 -8.392275 -7.654577 -12.874827 -36.868492 107.832764 102.329041
105 101.696655 -8.392275 -7.654577 -12.874834 -36.868492 107.832779 102.329041
[L_rear_hand02]
104 102.726799 -1.568258 5.773216 71.484581 71.816628 158.486160 102.900848
105 102.726799 -1.568258 5.773216 71.484627 71.816643 158.486160 102.900848
[L_rear_hand03]
104 104.552910 9.721220 -10.420293 -177.714203 -24.565960 -106.089035 105.519653
105 104.552910 9.721220 -10.420293 -177.714203 -24.565960 -106.089035 105.519653
